<?xml version="1.0" encoding="utf-8"?>
<svg viewBox="359.424 181.545 300 61.613" xmlns="http://www.w3.org/2000/svg">
  <defs>
    <linearGradient data-v-fde0c5aa="" gradientTransform="rotate(25)" id="aee97759-3285-407d-b846-7e1b9f12af70" x1="0%" y1="0%" x2="100%" y2="0%">
      <stop data-v-fde0c5aa="" offset="0" stop-color="#420F14" stop-opacity="1"/>
      <stop data-v-fde0c5aa="" offset="1" stop-color="#C5545E" stop-opacity="1"/>
    </linearGradient>
  </defs>
  <g data-v-fde0c5aa="" id="9534c160-033e-4c86-9d5c-0092001bf49e" fill="#000000" transform="matrix(2.558434, 0, 0, 2.558434, 445.974304, 184.848618)" style="">
    <path d="M3.12 5.05L3.12 5.05L8.19 10.71L8.72 10.71L8.72 0.50L6.71 0.50L6.71 6.16L1.65 0.28L1.12 0.28L1.12 10.50L3.12 10.50L3.12 5.05ZM16.16 10.50L16.16 10.50L16.16 8.50L12.98 8.50L12.98 6.50L15.61 6.50L15.61 4.49L12.98 4.49L12.98 2.49L15.99 2.49L15.99 0.49L10.98 0.49L10.98 10.50L16.16 10.50ZM17.14 10.50L19.40 10.50L19.80 9.42L23.11 9.42L23.52 10.50L25.77 10.50L21.56 0.13L21.35 0.13L17.14 10.50L17.14 10.50ZM20.52 7.55L21.46 4.94L22.37 7.55L20.52 7.55L20.52 7.55ZM34.43 10.50L34.43 10.50L32.10 6.37C35.04 5.52 34.69 0.49 31.12 0.49L27.17 0.49L27.17 10.50L29.18 10.50L29.18 6.68L30.14 6.68L32.16 10.50ZM29.18 2.49L30.94 2.49C32.30 2.49 32.30 4.73 30.94 4.73L29.18 4.73L29.18 4.73ZM37.77 2.48L39.55 2.48C40.12 2.48 40.47 2.93 40.47 3.49C40.47 4.03 40.12 4.49 39.55 4.49L38.98 4.49L37.77 4.49L37.77 2.48L37.77 2.48ZM35.76 10.50L39.72 10.50C41.34 10.50 42.67 9.17 42.67 7.49C42.67 6.71 42.29 5.94 41.64 5.49C42.27 5.05 42.53 4.27 42.56 3.51C42.60 1.75 41.50 0.48 39.72 0.48L35.76 0.48L35.76 10.50L35.76 10.50L35.76 10.50ZM37.77 6.50L39.55 6.50C40.12 6.50 40.56 6.93 40.56 7.49C40.56 8.05 40.12 8.50 39.55 8.50L38.98 8.50L37.77 8.50L37.77 6.50L37.77 6.50ZM51.63 7.01L51.63 0.49L49.64 0.49L49.64 7C49.64 9.10 46.40 9.10 46.40 7L46.40 0.49L44.39 0.49L44.39 7.01C44.39 11.77 51.63 11.77 51.63 7.01L51.63 7.01ZM56.29 10.50L56.29 10.50L58.28 10.50L58.28 5.99L61.78 0.49L59.33 0.49L57.29 3.93L55.24 0.49L52.81 0.49L56.29 5.99L56.29 10.50ZM63.35 8.34C61.84 8.34 61.84 10.60 63.35 10.60C64.85 10.60 64.89 8.34 63.35 8.34ZM68.35 5.05L68.35 5.05L73.42 10.71L73.95 10.71L73.95 0.50L71.93 0.50L71.93 6.16L66.88 0.28L66.35 0.28L66.35 10.50L68.35 10.50L68.35 5.05ZM83.43 9.88L83.43 9.88L83.43 5.49L81.40 5.49L81.40 8.50C81.21 8.53 81.02 8.55 80.84 8.55C76.97 8.55 76.79 2.58 80.84 2.44C81.90 2.41 82.54 2.63 82.94 2.80L83.17 0.77C82.99 0.71 82.03 0.36 80.84 0.41C73.89 0.66 74.23 10.56 80.84 10.56C81.79 10.56 82.66 10.32 83.43 9.88Z"/>
  </g>
  <g data-v-fde0c5aa="" id="cbf16c97-e6a6-4ee7-867b-776df74e4f5b" stroke="none" fill="url(#aee97759-3285-407d-b846-7e1b9f12af70)" transform="matrix(0.560063, 0, 0, 0.560063, 359.424469, 176.510483)" style="">
    <path d="M61.922 34.859a3.994 3.994 0 0 0-4-3.978h-4a3.994 3.994 0 0 0-4 3.978v3.978a3.994 3.994 0 0 0 4 3.979h4a3.994 3.994 0 0 0 4-3.979zm-8 3.978V34.86h4l.003 3.978zM77.922 34.859a3.994 3.994 0 0 0-4-3.978h-4a3.994 3.994 0 0 0-4 3.978v3.978a3.994 3.994 0 0 0 4 3.979h4a3.994 3.994 0 0 0 4-3.979zm-8 3.978V34.86h4l.003 3.978zM61.922 50.772a3.994 3.994 0 0 0-4-3.978h-4a3.994 3.994 0 0 0-4 3.978v3.979a3.994 3.994 0 0 0 4 3.978h4a3.994 3.994 0 0 0 4-3.978zm-8 3.979v-3.979h4l.003 3.979zM77.922 50.772a3.994 3.994 0 0 0-4-3.978h-4a3.994 3.994 0 0 0-4 3.978v3.979a3.994 3.994 0 0 0 4 3.978h4a3.994 3.994 0 0 0 4-3.978zm-8 3.979v-3.979h4l.003 3.979zM61.922 66.686a3.994 3.994 0 0 0-4-3.979h-4a3.994 3.994 0 0 0-4 3.979v3.978a3.993 3.993 0 0 0 4 3.978h4a3.993 3.993 0 0 0 4-3.978zm-8 3.978v-3.978h4l.003 3.978zM77.922 66.686a3.994 3.994 0 0 0-4-3.979h-4a3.994 3.994 0 0 0-4 3.979v3.978a3.993 3.993 0 0 0 4 3.978h4a3.993 3.993 0 0 0 4-3.978zm-8 3.978v-3.978h4l.003 3.978zM73.922 78.62h-4a3.993 3.993 0 0 0-4 3.979v3.978a3.993 3.993 0 0 0 4 3.978h4a3.993 3.993 0 0 0 4-3.978V82.6a3.993 3.993 0 0 0-4-3.979zm-4 7.957V82.6h4l.003 3.978zM20 71.986a6 6 0 1 0-6 5.968 5.99 5.99 0 0 0 6-5.968zm-8 0a2 2 0 1 1 2 1.99 1.995 1.995 0 0 1-2-1.99z"/>
    <path d="M114 75.965c-7.72 0-14 6.005-14 13.386 0 5.567 6.985 15.66 10.078 19.857-9.949 3.253-25.825 5.814-46.192 5.814-5.491 0-10.654-.188-15.468-.523C51.705 109.968 58 100.6 58 95.319c0-7.382-6.28-13.387-14-13.387s-14 6.005-14 13.386c0 4.954 5.535 13.498 8.935 18.279-20.876-2.542-32.988-7.994-32.988-12.215 0-3.297 7.396-7.344 20.584-10.17a16.886 16.886 0 0 1 1.79-4.392c-3.055.58-5.94 1.241-8.606 1.981C23.126 83.905 28 76.099 28 71.448c0-7.38-6.28-13.386-14-13.386S0 64.067 0 71.448c0 5.935 7.936 17.012 10.634 20.606-5.42 2.551-8.687 5.67-8.687 9.328C1.947 112.826 33.859 119 63.886 119c19.192 0 39.13-2.53 51.037-7.338a4.002 4.002 0 0 0 2.276-1.482C119.732 106.824 128 95.403 128 89.35c0-7.38-6.28-13.385-14-13.385zM4 71.448c0-5.195 4.477-9.407 10-9.407s10 4.212 10 9.407-10 18.44-10 18.44S4 76.645 4 71.449zm30 23.87c0-5.195 4.477-9.407 10-9.407s10 4.212 10 9.407-10 18.44-10 18.44-10-13.244-10-18.44zm80.026 12.44l-.04.016c-.277-.37-9.986-13.302-9.986-18.423 0-5.196 4.477-9.408 10-9.408s10 4.212 10 9.408c0 5.05-9.448 17.705-9.974 18.406z"/>
    <path d="M114 84.916a5.968 5.968 0 1 0 6 5.967 5.99 5.99 0 0 0-6-5.967zm0 7.957a1.99 1.99 0 1 1 2-1.99 1.995 1.995 0 0 1-2 1.99zM57.922 78.62h-4a3.973 3.973 0 0 0-2.499.898 18.104 18.104 0 0 1 4.79 3.08h1.71v1.73a17.219 17.219 0 0 1 2.928 4.938 3.94 3.94 0 0 0 1.071-2.689V82.6a3.993 3.993 0 0 0-4-3.979zM44 89.889a5.968 5.968 0 1 0 6 5.967 5.99 5.99 0 0 0-6-5.967zm0 7.957a1.99 1.99 0 1 1 2-1.99 1.995 1.995 0 0 1-2 1.99z"/>
    <path d="M83.922 102.49a1.995 1.995 0 0 0 2-1.989V88.84c3.607.378 6.973.842 10.087 1.372a16.732 16.732 0 0 1 .507-3.912 170.28 170.28 0 0 0-10.594-1.421V26.902a3.994 3.994 0 0 0-4-3.978h-2v-3.978a3.994 3.994 0 0 0-4-3.979h-1V10.99a2 2 0 0 0-4 0v3.978h-1a3.994 3.994 0 0 0-4 3.979v3.978h-4v-3.978a3.994 3.994 0 0 0-4-3.979h-1V10.99a2 2 0 0 0-4 0v3.978h-1a3.994 3.994 0 0 0-4 3.979v3.978h-2a3.994 3.994 0 0 0-4 3.978V78.08a17.695 17.695 0 0 1 4-.023V26.902h36v73.6a1.995 1.995 0 0 0 2 1.988zm-26-79.566h-6v-3.978h6zm18 0h-6v-3.978h6z"/>
  </g>
  <g data-v-fde0c5aa="" id="2fe90e46-674f-44f5-92d1-4b405840bc03" fill="#000000" transform="matrix(0.759959, 0, 0, 0.759959, 448.23175, 223.005554)" style="">
    <path d="M6.43 9.91C6.29 9.65 6.09 9.39 5.85 9.21C5.61 9.03 5.36 8.88 5.07 8.75C4.77 8.62 4.45 8.51 4.14 8.41C3.84 8.32 3.53 8.20 3.23 8.11C2.94 7.99 2.67 7.87 2.44 7.71C2.20 7.56 2.02 7.38 1.88 7.15C1.74 6.93 1.65 6.65 1.65 6.31C1.65 6.06 1.71 5.82 1.81 5.59C1.90 5.35 2.04 5.15 2.23 4.97C2.41 4.79 2.63 4.65 2.91 4.55C3.19 4.45 3.50 4.40 3.86 4.40C4.54 4.40 5.15 4.51 5.71 4.75C5.75 5.54 5.78 5.99 5.78 6.06C5.80 6.29 5.88 6.41 6.08 6.41L6.41 6.41L6.41 4.38C5.53 4.00 4.69 3.81 3.86 3.81C3.40 3.81 3.00 3.88 2.63 4.02C2.27 4.16 1.97 4.34 1.74 4.58C1.50 4.82 1.30 5.08 1.18 5.39C1.05 5.70 0.99 6.02 0.99 6.36C0.99 6.78 1.06 7.14 1.20 7.42C1.34 7.70 1.54 7.92 1.78 8.12C2.02 8.32 2.27 8.46 2.56 8.58C2.86 8.71 3.18 8.82 3.49 8.92C3.79 9.02 4.09 9.11 4.40 9.21C4.69 9.31 4.96 9.45 5.19 9.60C5.43 9.76 5.61 9.94 5.75 10.16C5.89 10.39 5.96 10.68 5.96 11.03C5.96 11.35 5.91 11.66 5.80 11.94C5.68 12.22 5.53 12.46 5.32 12.67C5.11 12.88 4.84 13.05 4.54 13.16C4.23 13.29 3.88 13.33 3.49 13.33C2.70 13.33 2.04 13.20 1.51 12.95C1.50 12.75 1.50 12.54 1.48 12.32C1.47 12.10 1.47 11.91 1.46 11.76C1.44 11.61 1.44 11.52 1.44 11.51C1.43 11.28 1.33 11.17 1.13 11.17L0.80 11.17L0.80 13.02L0.80 13.20L0.80 13.38C1.65 13.75 2.53 13.93 3.46 13.93C3.96 13.93 4.41 13.85 4.80 13.69C5.19 13.54 5.53 13.31 5.80 13.05C6.06 12.78 6.29 12.46 6.43 12.10C6.57 11.73 6.64 11.34 6.64 10.92C6.64 10.51 6.57 10.18 6.43 9.91ZM22.41 3.92L22.22 3.92L14.92 3.92L14.71 3.92L14.62 3.92L14.62 5.96L14.97 5.96C15.16 5.96 15.25 5.85 15.26 5.63C15.26 5.53 15.29 5.17 15.32 4.52L18.21 4.52L18.21 13.26C18.05 13.26 17.91 13.27 17.77 13.27C17.63 13.27 17.51 13.29 17.44 13.29L17.32 13.29C17.14 13.30 17.04 13.38 17.04 13.54L17.04 13.82L18.21 13.82L18.93 13.82L20.12 13.82L20.12 13.54C20.12 13.38 20.02 13.30 19.84 13.29L19.70 13.29C19.63 13.29 19.53 13.27 19.39 13.27C19.25 13.27 19.10 13.26 18.93 13.26L18.93 4.52L21.81 4.52C21.85 5.24 21.87 5.60 21.87 5.63C21.88 5.85 21.98 5.96 22.18 5.96L22.51 5.96L22.51 3.92ZM39.10 13.22L38.64 13.17L34.86 3.91L34.15 3.91L30.35 13.17L29.90 13.22C29.72 13.23 29.64 13.33 29.64 13.50L29.64 13.82L30.09 13.82L30.38 13.82L30.63 13.82L30.73 13.82L32.05 13.82L32.05 13.50C32.05 13.31 31.93 13.23 31.72 13.22C31.71 13.22 31.68 13.20 31.64 13.20C31.60 13.20 31.54 13.19 31.44 13.19C31.35 13.19 31.22 13.19 31.08 13.17L32.06 10.75L32.13 10.57L36.86 10.57L36.93 10.75L37.91 13.17C37.77 13.19 37.66 13.19 37.56 13.19C37.46 13.19 37.39 13.20 37.35 13.20C37.31 13.20 37.28 13.22 37.27 13.22C37.06 13.23 36.95 13.31 36.95 13.50L36.95 13.82L38.26 13.82L38.36 13.82L38.63 13.82L38.91 13.82L39.37 13.82L39.37 13.50C39.37 13.33 39.28 13.23 39.10 13.22ZM34.30 5.22C34.33 5.14 34.37 5.04 34.40 4.94C34.43 4.84 34.47 4.75 34.50 4.63C34.52 4.75 34.57 4.84 34.59 4.94C34.62 5.04 34.66 5.12 34.69 5.21L36.65 10.04L32.35 10.04ZM54.12 3.92L54.05 3.92L53.49 3.92L53.38 3.92L51.98 3.92L51.98 4.19C51.98 4.34 52.08 4.42 52.26 4.44L52.37 4.44C52.43 4.44 52.50 4.45 52.61 4.45C52.72 4.45 52.85 4.47 52.99 4.47L50.40 8.64C50.33 8.75 50.27 8.85 50.23 8.95C50.19 9.04 50.15 9.16 50.11 9.25C50.06 9.16 50.02 9.04 49.98 8.95C49.94 8.85 49.88 8.75 49.81 8.64L47.21 4.47C47.35 4.47 47.47 4.45 47.59 4.45C47.70 4.45 47.78 4.44 47.84 4.44L47.94 4.44C48.12 4.42 48.22 4.34 48.22 4.19L48.22 3.92L46.82 3.92L46.70 3.92L46.14 3.92L46.07 3.92L45.63 3.92L45.63 4.19C45.63 4.34 45.72 4.42 45.91 4.44C46.14 4.45 46.33 4.47 46.42 4.47L49.74 9.73L49.74 13.26C49.57 13.26 49.42 13.27 49.28 13.27C49.14 13.27 49.04 13.29 48.97 13.29L48.85 13.29C48.66 13.30 48.57 13.38 48.57 13.54L48.57 13.82L49.74 13.82L50.46 13.82L51.63 13.82L51.63 13.54C51.63 13.38 51.55 13.30 51.37 13.29L51.23 13.29C51.16 13.29 51.06 13.27 50.92 13.27C50.78 13.27 50.62 13.26 50.46 13.26L50.46 9.73L53.77 4.47C53.89 4.47 54.05 4.45 54.29 4.44C54.47 4.42 54.57 4.34 54.57 4.19L54.57 3.92ZM80.11 3.92L79.76 3.92L74.17 3.92L72.98 3.92L72.98 4.19C72.98 4.34 73.08 4.42 73.26 4.44L73.40 4.44C73.47 4.44 73.57 4.45 73.71 4.45C73.85 4.45 74.00 4.47 74.17 4.47L74.17 13.26C74.00 13.26 73.85 13.27 73.71 13.27C73.57 13.27 73.47 13.29 73.40 13.29L73.26 13.29C73.08 13.30 72.98 13.38 72.98 13.54L72.98 13.82L74.17 13.82L74.89 13.82L76.06 13.82L76.06 13.54C76.06 13.38 75.98 13.30 75.80 13.29L75.66 13.29C75.59 13.29 75.49 13.27 75.35 13.27C75.21 13.27 75.05 13.26 74.89 13.26L74.89 9.27L78.58 9.27L78.58 8.67L74.89 8.67L74.89 4.51L79.49 4.51C79.52 5.18 79.55 5.56 79.55 5.63C79.56 5.85 79.66 5.96 79.86 5.96L80.19 5.96L80.19 3.92ZM96.80 13.22L96.33 13.17L92.55 3.91L91.84 3.91L88.05 13.17L87.60 13.22C87.42 13.23 87.33 13.33 87.33 13.50L87.33 13.82L87.78 13.82L88.07 13.82L88.33 13.82L88.42 13.82L89.74 13.82L89.74 13.50C89.74 13.31 89.63 13.23 89.42 13.22C89.40 13.22 89.38 13.20 89.33 13.20C89.29 13.20 89.24 13.19 89.14 13.19C89.04 13.19 88.91 13.19 88.77 13.17L89.75 10.75L89.82 10.57L94.56 10.57L94.63 10.75L95.61 13.17C95.47 13.19 95.35 13.19 95.26 13.19C95.16 13.19 95.09 13.20 95.05 13.20C95.00 13.20 94.98 13.22 94.96 13.22C94.75 13.23 94.64 13.31 94.64 13.50L94.64 13.82L95.96 13.82L96.05 13.82L96.32 13.82L96.60 13.82L97.06 13.82L97.06 13.50C97.06 13.33 96.98 13.23 96.80 13.22ZM91.99 5.22C92.02 5.14 92.06 5.04 92.09 4.94C92.12 4.84 92.16 4.75 92.19 4.63C92.22 4.75 92.26 4.84 92.29 4.94C92.32 5.04 92.36 5.12 92.39 5.21L94.35 10.04L90.05 10.04ZM113.29 13.29L113.19 13.29L113.01 13.29C112.92 13.29 112.84 13.27 112.76 13.27L109.79 9.53C109.70 9.42 109.59 9.32 109.48 9.25C109.91 9.21 110.31 9.11 110.66 8.96C111.01 8.81 111.29 8.61 111.54 8.37C111.78 8.13 111.97 7.85 112.10 7.55C112.22 7.24 112.29 6.89 112.29 6.51C112.29 5.66 112.01 5.03 111.45 4.58C110.89 4.14 110.04 3.92 108.89 3.92L106.48 3.92L105.31 3.92L105.31 4.19C105.31 4.34 105.39 4.42 105.57 4.44L105.71 4.44C105.78 4.44 105.88 4.45 106.02 4.45C106.16 4.45 106.32 4.47 106.48 4.47L106.48 13.26C106.32 13.26 106.16 13.27 106.02 13.27C105.88 13.27 105.78 13.29 105.71 13.29L105.57 13.29C105.39 13.30 105.29 13.38 105.29 13.54L105.29 13.82L106.48 13.82L107.20 13.82L108.37 13.82L108.37 13.54C108.37 13.38 108.28 13.30 108.09 13.29L107.95 13.29C107.88 13.29 107.79 13.27 107.65 13.27C107.51 13.27 107.37 13.26 107.20 13.26L107.20 9.34L108.37 9.34C108.57 9.34 108.71 9.35 108.79 9.39C108.88 9.44 108.96 9.52 109.05 9.62L112.22 13.64C112.28 13.71 112.32 13.75 112.38 13.78C112.43 13.80 112.50 13.82 112.57 13.82L112.64 13.82L113.19 13.82L113.55 13.82L113.55 13.54C113.55 13.38 113.47 13.30 113.29 13.29ZM108.79 8.81L107.20 8.81L107.20 4.48L108.89 4.48C109.77 4.48 110.45 4.66 110.91 5.00C111.37 5.33 111.59 5.87 111.59 6.57C111.59 6.92 111.54 7.21 111.41 7.49C111.29 7.77 111.09 7.99 110.85 8.19C110.61 8.39 110.32 8.55 109.97 8.65C109.62 8.75 109.23 8.81 108.79 8.81ZM122.07 13.23C122.07 13.41 122.11 13.57 122.22 13.68C122.33 13.79 122.49 13.85 122.65 13.85L122.77 13.85C122.79 13.85 122.82 13.83 122.85 13.82C122.84 13.99 122.79 14.14 122.74 14.29C122.68 14.45 122.61 14.57 122.54 14.70C122.47 14.83 122.40 14.94 122.33 15.02C122.26 15.11 122.19 15.19 122.15 15.23C122.14 15.25 122.12 15.27 122.11 15.30C122.09 15.33 122.08 15.33 122.08 15.36C122.08 15.40 122.09 15.44 122.14 15.48L122.25 15.58C122.40 15.43 122.56 15.29 122.68 15.11C122.81 14.92 122.92 14.74 123.02 14.55C123.12 14.35 123.17 14.15 123.23 13.96C123.28 13.76 123.30 13.58 123.30 13.38C123.30 13.16 123.24 12.98 123.13 12.84C123.02 12.70 122.86 12.63 122.67 12.63C122.49 12.63 122.35 12.70 122.23 12.81C122.12 12.92 122.07 13.06 122.07 13.23ZM148.05 9.91C147.91 9.65 147.71 9.39 147.48 9.21C147.24 9.03 146.99 8.88 146.69 8.75C146.40 8.62 146.08 8.51 145.77 8.41C145.46 8.32 145.15 8.20 144.86 8.11C144.56 7.99 144.30 7.87 144.06 7.71C143.82 7.56 143.64 7.38 143.50 7.15C143.36 6.93 143.28 6.65 143.28 6.31C143.28 6.06 143.33 5.82 143.43 5.59C143.53 5.35 143.67 5.15 143.85 4.97C144.03 4.79 144.26 4.65 144.54 4.55C144.82 4.45 145.12 4.40 145.49 4.40C146.16 4.40 146.78 4.51 147.34 4.75C147.38 5.54 147.41 5.99 147.41 6.06C147.42 6.29 147.50 6.41 147.70 6.41L148.04 6.41L148.04 4.38C147.15 4.00 146.31 3.81 145.49 3.81C145.03 3.81 144.62 3.88 144.26 4.02C143.89 4.16 143.60 4.34 143.36 4.58C143.12 4.82 142.93 5.08 142.80 5.39C142.67 5.70 142.62 6.02 142.62 6.36C142.62 6.78 142.69 7.14 142.83 7.42C142.97 7.70 143.16 7.92 143.40 8.12C143.64 8.32 143.89 8.46 144.19 8.58C144.48 8.71 144.80 8.82 145.11 8.92C145.42 9.02 145.71 9.11 146.02 9.21C146.31 9.31 146.58 9.45 146.82 9.60C147.06 9.76 147.24 9.94 147.38 10.16C147.52 10.39 147.59 10.68 147.59 11.03C147.59 11.35 147.53 11.66 147.42 11.94C147.31 12.22 147.15 12.46 146.94 12.67C146.73 12.88 146.47 13.05 146.16 13.16C145.85 13.29 145.50 13.33 145.11 13.33C144.33 13.33 143.67 13.20 143.14 12.95C143.12 12.75 143.12 12.54 143.11 12.32C143.09 12.10 143.09 11.91 143.08 11.76C143.07 11.61 143.07 11.52 143.07 11.51C143.05 11.28 142.95 11.17 142.76 11.17L142.42 11.17L142.42 13.02L142.42 13.20L142.42 13.38C143.28 13.75 144.16 13.93 145.08 13.93C145.59 13.93 146.03 13.85 146.43 13.69C146.82 13.54 147.15 13.31 147.42 13.05C147.69 12.78 147.91 12.46 148.05 12.10C148.19 11.73 148.26 11.34 148.26 10.92C148.26 10.51 148.19 10.18 148.05 9.91ZM166.25 4.44C166.43 4.42 166.53 4.34 166.53 4.19L166.53 3.92L165.35 3.92L164.63 3.92L163.45 3.92L163.45 4.19C163.45 4.34 163.55 4.42 163.73 4.44L163.86 4.44C163.93 4.44 164.04 4.45 164.18 4.45C164.32 4.45 164.46 4.47 164.63 4.47L164.63 8.53L158.42 8.53L158.42 4.47C158.59 4.47 158.75 4.45 158.89 4.45C159.03 4.45 159.12 4.44 159.19 4.44L159.33 4.44C159.52 4.42 159.60 4.34 159.60 4.19L159.60 3.92L158.42 3.92L157.71 3.92L156.52 3.92L156.52 4.19C156.52 4.34 156.62 4.42 156.80 4.44L156.94 4.44C157.01 4.44 157.11 4.45 157.25 4.45C157.39 4.45 157.54 4.47 157.71 4.47L157.71 13.26C157.54 13.26 157.39 13.27 157.25 13.27C157.11 13.27 157.01 13.29 156.94 13.29L156.80 13.29C156.62 13.30 156.52 13.38 156.52 13.54L156.52 13.82L157.71 13.82L158.42 13.82L159.60 13.82L159.60 13.54C159.60 13.38 159.52 13.30 159.33 13.29L159.19 13.29C159.12 13.29 159.03 13.27 158.89 13.27C158.75 13.27 158.59 13.26 158.42 13.26L158.42 9.07L164.63 9.07L164.63 13.26C164.46 13.26 164.32 13.27 164.18 13.27C164.04 13.27 163.93 13.29 163.86 13.29L163.73 13.29C163.55 13.30 163.45 13.38 163.45 13.54L163.45 13.82L164.63 13.82L165.35 13.82L166.53 13.82L166.53 13.54C166.53 13.38 166.43 13.30 166.25 13.29L166.12 13.29C166.05 13.29 165.94 13.27 165.80 13.27C165.66 13.27 165.52 13.26 165.35 13.26L165.35 4.47C165.52 4.47 165.66 4.45 165.80 4.45C165.94 4.45 166.05 4.44 166.12 4.44ZM184.14 8.86C184.14 8.11 184.02 7.41 183.79 6.79C183.57 6.17 183.25 5.64 182.83 5.19C182.41 4.75 181.92 4.40 181.34 4.16C180.77 3.92 180.11 3.79 179.41 3.79C178.71 3.79 178.08 3.92 177.51 4.16C176.93 4.40 176.43 4.75 176.01 5.19C175.59 5.64 175.27 6.17 175.04 6.79C174.82 7.41 174.69 8.11 174.69 8.86C174.69 9.63 174.82 10.33 175.04 10.95C175.27 11.56 175.59 12.10 176.01 12.54C176.43 12.99 176.93 13.33 177.51 13.57C178.08 13.80 178.71 13.93 179.41 13.93C180.11 13.93 180.77 13.80 181.34 13.57C181.92 13.33 182.41 12.99 182.83 12.54C183.25 12.10 183.57 11.56 183.79 10.95C184.02 10.33 184.14 9.63 184.14 8.86ZM183.39 8.86C183.39 9.56 183.30 10.18 183.11 10.72C182.91 11.27 182.64 11.75 182.29 12.12C181.94 12.50 181.52 12.81 181.03 13.01C180.54 13.20 180.01 13.30 179.41 13.30C178.82 13.30 178.29 13.20 177.80 13.01C177.31 12.81 176.89 12.50 176.54 12.12C176.19 11.75 175.91 11.27 175.71 10.72C175.52 10.18 175.43 9.56 175.43 8.86C175.43 8.18 175.52 7.55 175.71 7.00C175.91 6.45 176.19 5.98 176.54 5.60C176.89 5.22 177.31 4.91 177.80 4.72C178.29 4.52 178.82 4.41 179.41 4.41C180.01 4.41 180.54 4.52 181.03 4.72C181.52 4.91 181.94 5.22 182.29 5.60C182.64 5.98 182.91 6.45 183.11 7.00C183.30 7.55 183.39 8.18 183.39 8.86ZM198.65 4.68C198.06 4.17 197.18 3.92 196.01 3.92L193.61 3.92L192.42 3.92L192.42 4.19C192.42 4.34 192.51 4.42 192.70 4.44L192.84 4.44C192.91 4.44 193.00 4.45 193.14 4.45C193.28 4.45 193.44 4.47 193.61 4.47L193.61 13.26C193.44 13.26 193.28 13.27 193.14 13.27C193.00 13.27 192.91 13.29 192.84 13.29L192.70 13.29C192.51 13.30 192.42 13.38 192.42 13.54L192.42 13.82L193.61 13.82L194.32 13.82L195.50 13.82L195.50 13.54C195.50 13.38 195.40 13.30 195.22 13.29L195.09 13.29C195.02 13.29 194.91 13.27 194.77 13.27C194.63 13.27 194.49 13.26 194.32 13.26L194.32 9.83L196.01 9.83C196.56 9.83 197.05 9.74 197.48 9.60C197.92 9.45 198.28 9.25 198.59 8.99C198.90 8.72 199.14 8.41 199.29 8.05C199.46 7.69 199.53 7.29 199.53 6.86C199.53 5.92 199.23 5.18 198.65 4.68ZM198.62 7.81C198.49 8.11 198.31 8.36 198.07 8.57C197.83 8.78 197.54 8.95 197.19 9.07C196.84 9.20 196.45 9.25 196.01 9.25L194.32 9.25L194.32 4.48L196.01 4.48C196.94 4.48 197.64 4.69 198.11 5.10C198.58 5.50 198.81 6.09 198.81 6.85C198.81 7.20 198.74 7.52 198.62 7.81ZM226.93 3.92L226.30 3.92L225.08 3.92L225.08 4.19C225.08 4.34 225.18 4.42 225.36 4.44L225.50 4.44C225.57 4.44 225.68 4.45 225.82 4.45C225.96 4.45 226.13 4.47 226.30 4.47L226.30 12.22C226.30 12.35 226.30 12.49 226.31 12.63L219.90 4.05C219.86 3.99 219.83 3.95 219.79 3.93C219.74 3.92 219.70 3.91 219.63 3.91L219.28 3.91L218.09 3.91L218.09 4.19C218.09 4.34 218.19 4.42 218.37 4.44L218.51 4.44C218.58 4.44 218.68 4.45 218.82 4.45C218.96 4.45 219.11 4.47 219.28 4.47L219.28 13.26C219.11 13.26 218.96 13.27 218.82 13.27C218.68 13.27 218.58 13.29 218.51 13.29L218.37 13.29C218.19 13.30 218.09 13.38 218.09 13.54L218.09 13.82L219.28 13.82L219.90 13.82L221.12 13.82L221.12 13.54C221.12 13.38 221.02 13.30 220.84 13.29L220.70 13.29C220.63 13.29 220.50 13.27 220.36 13.27C220.22 13.27 220.07 13.26 219.90 13.26L219.90 5.49C219.90 5.36 219.90 5.22 219.88 5.08L226.32 13.68C226.39 13.78 226.46 13.82 226.58 13.82L226.93 13.82L226.93 4.47C227.09 4.47 227.23 4.45 227.37 4.45C227.51 4.45 227.63 4.44 227.70 4.44L227.82 4.44C228.00 4.42 228.10 4.34 228.10 4.19L228.10 3.92ZM237.33 3.92L236.14 3.92L236.14 4.19C236.14 4.34 236.24 4.42 236.42 4.44L236.56 4.44C236.63 4.44 236.73 4.45 236.87 4.45C237.01 4.45 237.16 4.47 237.33 4.47L237.33 13.26C237.16 13.26 237.01 13.27 236.87 13.27C236.73 13.27 236.63 13.29 236.56 13.29L236.42 13.29C236.24 13.30 236.15 13.38 236.15 13.54L236.15 13.82L237.33 13.82L243.26 13.82L243.26 13.22L243.26 11.76L242.91 11.76C242.72 11.76 242.63 11.89 242.62 12.11C242.62 12.14 242.61 12.19 242.61 12.29C242.61 12.39 242.61 12.53 242.59 12.74C242.58 12.95 242.56 13.09 242.56 13.22L238.04 13.22L238.04 9.09L241.99 9.09L241.99 8.51L238.04 8.51L238.04 4.51L242.56 4.51C242.59 5.12 242.62 5.50 242.62 5.63C242.63 5.85 242.72 5.96 242.91 5.96L243.26 5.96L243.26 4.51L243.26 3.92ZM261.14 13.22L260.68 13.17L256.90 3.91L256.19 3.91L252.39 13.17L251.94 13.22C251.76 13.23 251.68 13.33 251.68 13.50L251.68 13.82L252.13 13.82L252.42 13.82L252.67 13.82L252.77 13.82L254.09 13.82L254.09 13.50C254.09 13.31 253.97 13.23 253.76 13.22C253.75 13.22 253.72 13.20 253.68 13.20C253.64 13.20 253.58 13.19 253.48 13.19C253.39 13.19 253.26 13.19 253.12 13.17L254.10 10.75L254.17 10.57L258.90 10.57L258.97 10.75L259.95 13.17C259.81 13.19 259.70 13.19 259.60 13.19C259.50 13.19 259.43 13.20 259.39 13.20C259.35 13.20 259.32 13.22 259.31 13.22C259.10 13.23 258.99 13.31 258.99 13.50L258.99 13.82L260.30 13.82L260.40 13.82L260.67 13.82L260.95 13.82L261.41 13.82L261.41 13.50C261.41 13.33 261.32 13.23 261.14 13.22ZM256.34 5.22C256.37 5.14 256.41 5.04 256.44 4.94C256.47 4.84 256.51 4.75 256.54 4.63C256.56 4.75 256.61 4.84 256.63 4.94C256.66 5.04 256.70 5.12 256.73 5.21L258.69 10.04L254.39 10.04ZM277.63 13.29L277.54 13.29L277.35 13.29C277.27 13.29 277.19 13.27 277.10 13.27L274.13 9.53C274.05 9.42 273.94 9.32 273.83 9.25C274.26 9.21 274.65 9.11 275.00 8.96C275.35 8.81 275.63 8.61 275.88 8.37C276.12 8.13 276.32 7.85 276.44 7.55C276.57 7.24 276.64 6.89 276.64 6.51C276.64 5.66 276.36 5.03 275.80 4.58C275.24 4.14 274.39 3.92 273.24 3.92L270.83 3.92L269.65 3.92L269.65 4.19C269.65 4.34 269.74 4.42 269.92 4.44L270.06 4.44C270.13 4.44 270.23 4.45 270.37 4.45C270.51 4.45 270.66 4.47 270.83 4.47L270.83 13.26C270.66 13.26 270.51 13.27 270.37 13.27C270.23 13.27 270.13 13.29 270.06 13.29L269.92 13.29C269.74 13.30 269.64 13.38 269.64 13.54L269.64 13.82L270.83 13.82L271.54 13.82L272.72 13.82L272.72 13.54C272.72 13.38 272.62 13.30 272.44 13.29L272.30 13.29C272.23 13.29 272.13 13.27 271.99 13.27C271.85 13.27 271.71 13.26 271.54 13.26L271.54 9.34L272.72 9.34C272.92 9.34 273.06 9.35 273.14 9.39C273.22 9.44 273.31 9.52 273.39 9.62L276.57 13.64C276.63 13.71 276.67 13.75 276.72 13.78C276.78 13.80 276.85 13.82 276.92 13.82L276.99 13.82L277.54 13.82L277.90 13.82L277.90 13.54C277.90 13.38 277.82 13.30 277.63 13.29ZM273.14 8.81L271.54 8.81L271.54 4.48L273.24 4.48C274.12 4.48 274.79 4.66 275.25 5.00C275.72 5.33 275.94 5.87 275.94 6.57C275.94 6.92 275.88 7.21 275.76 7.49C275.63 7.77 275.44 7.99 275.20 8.19C274.96 8.39 274.67 8.55 274.32 8.65C273.97 8.75 273.57 8.81 273.14 8.81Z"/>
  </g>
</svg>